  0
SECTION
  2
BLOCKS
  0
ENDSEC
  0
SECTION
  2
ENTITIES
  0
LINE
  8
0
 10
50.25
 20
280.25
 11
0.25
 21
280.25
  0
LINE
  8
0
 10
0.25
 20
280.25
 11
0.25
 21
130.25
  0
LINE
  8
0
 10
0.25
 20
130.25
 11
50.25
 21
130.25
  0
LINE
  8
0
 10
50.25
 20
130.25
 11
50.25
 21
280.25
  0
LINE
  8
0
 10
23.75
 20
136.25
 11
23.75
 21
274.25
  0
LINE
  8
0
 10
23.75
 20
274.25
 11
26.75
 21
274.25
  0
LINE
  8
0
 10
26.75
 20
274.25
 11
26.75
 21
136.25
  0
LINE
  8
0
 10
26.75
 20
136.25
 11
23.75
 21
136.25
  0
LINE
  8
0
 10
100.5
 20
280.25
 11
50.5
 21
280.25
  0
LINE
  8
0
 10
50.5
 20
280.25
 11
50.5
 21
130.25
  0
LINE
  8
0
 10
50.5
 20
130.25
 11
100.5
 21
130.25
  0
LINE
  8
0
 10
100.5
 20
130.25
 11
100.5
 21
280.25
  0
LINE
  8
0
 10
74
 20
136.25
 11
74
 21
274.25
  0
LINE
  8
0
 10
74
 20
274.25
 11
77
 21
274.25
  0
LINE
  8
0
 10
77
 20
274.25
 11
77
 21
136.25
  0
LINE
  8
0
 10
77
 20
136.25
 11
74
 21
136.25
  0
LINE
  8
0
 10
50.25
 20
130
 11
0.25
 21
130
  0
LINE
  8
0
 10
0.25
 20
130
 11
0.25
 21
0
  0
LINE
  8
0
 10
0.25
 20
0
 11
50.25
 21
0
  0
LINE
  8
0
 10
50.25
 20
0
 11
50.25
 21
130
  0
LINE
  8
0
 10
23.75
 20
6
 11
23.75
 21
124
  0
LINE
  8
0
 10
23.75
 20
124
 11
26.75
 21
124
  0
LINE
  8
0
 10
26.75
 20
124
 11
26.75
 21
6
  0
LINE
  8
0
 10
26.75
 20
6
 11
23.75
 21
6
  0
LINE
  8
0
 10
100.5
 20
130
 11
50.5
 21
130
  0
LINE
  8
0
 10
50.5
 20
130
 11
50.5
 21
0
  0
LINE
  8
0
 10
50.5
 20
0
 11
100.5
 21
0
  0
LINE
  8
0
 10
100.5
 20
0
 11
100.5
 21
130
  0
LINE
  8
0
 10
74
 20
6
 11
74
 21
124
  0
LINE
  8
0
 10
74
 20
124
 11
77
 21
124
  0
LINE
  8
0
 10
77
 20
124
 11
77
 21
6
  0
LINE
  8
0
 10
77
 20
6
 11
74
 21
6
  0
ENDSEC
  0
SECTION
  2
OBJECTS
  0
DICTIONARY
  0
ENDSEC
  0
EOF
