  0
SECTION
  2
BLOCKS
  0
ENDSEC
  0
SECTION
  2
ENTITIES
  0
LINE
  8
0
 10
9.33333
 20
159.333
 11
17.6667
 21
159.333
  0
LINE
  8
0
 10
17.6667
 20
159.333
 11
17.6667
 21
151
  0
LINE
  8
0
 10
17.6667
 20
151
 11
34.3333
 21
151
  0
LINE
  8
0
 10
34.3333
 20
151
 11
34.3333
 21
159.333
  0
LINE
  8
0
 10
34.3333
 20
159.333
 11
42.6667
 21
159.333
  0
LINE
  8
0
 10
42.6667
 20
159.333
 11
42.6667
 21
151
  0
LINE
  8
0
 10
42.6667
 20
151
 11
51
 21
151
  0
LINE
  8
0
 10
51
 20
151
 11
51
 21
301
  0
LINE
  8
0
 10
51
 20
301
 11
42.6667
 21
301
  0
LINE
  8
0
 10
42.6667
 20
301
 11
42.6667
 21
292.667
  0
LINE
  8
0
 10
42.6667
 20
292.667
 11
34.3333
 21
292.667
  0
LINE
  8
0
 10
34.3333
 20
292.667
 11
34.3333
 21
301
  0
LINE
  8
0
 10
34.3333
 20
301
 11
17.6667
 21
301
  0
LINE
  8
0
 10
17.6667
 20
301
 11
17.6667
 21
292.667
  0
LINE
  8
0
 10
17.6667
 20
292.667
 11
9.33333
 21
292.667
  0
LINE
  8
0
 10
9.33333
 20
292.667
 11
9.33333
 21
301
  0
LINE
  8
0
 10
9.33333
 20
301
 11
1
 21
301
  0
LINE
  8
0
 10
1
 20
301
 11
1
 21
151
  0
LINE
  8
0
 10
1
 20
151
 11
9.33333
 21
151
  0
LINE
  8
0
 10
9.33333
 20
151
 11
9.33333
 21
159.333
  0
LINE
  8
0
 10
24.5
 20
157
 11
24.5
 21
295
  0
LINE
  8
0
 10
24.5
 20
295
 11
27.5
 21
295
  0
LINE
  8
0
 10
27.5
 20
295
 11
27.5
 21
157
  0
LINE
  8
0
 10
27.5
 20
157
 11
24.5
 21
157
  0
LINE
  8
0
 10
60.3333
 20
159.333
 11
68.6667
 21
159.333
  0
LINE
  8
0
 10
68.6667
 20
159.333
 11
68.6667
 21
151
  0
LINE
  8
0
 10
68.6667
 20
151
 11
85.3333
 21
151
  0
LINE
  8
0
 10
85.3333
 20
151
 11
85.3333
 21
159.333
  0
LINE
  8
0
 10
85.3333
 20
159.333
 11
93.6667
 21
159.333
  0
LINE
  8
0
 10
93.6667
 20
159.333
 11
93.6667
 21
151
  0
LINE
  8
0
 10
93.6667
 20
151
 11
102
 21
151
  0
LINE
  8
0
 10
102
 20
151
 11
102
 21
301
  0
LINE
  8
0
 10
102
 20
301
 11
93.6667
 21
301
  0
LINE
  8
0
 10
93.6667
 20
301
 11
93.6667
 21
292.667
  0
LINE
  8
0
 10
93.6667
 20
292.667
 11
85.3333
 21
292.667
  0
LINE
  8
0
 10
85.3333
 20
292.667
 11
85.3333
 21
301
  0
LINE
  8
0
 10
85.3333
 20
301
 11
68.6667
 21
301
  0
LINE
  8
0
 10
68.6667
 20
301
 11
68.6667
 21
292.667
  0
LINE
  8
0
 10
68.6667
 20
292.667
 11
60.3333
 21
292.667
  0
LINE
  8
0
 10
60.3333
 20
292.667
 11
60.3333
 21
301
  0
LINE
  8
0
 10
60.3333
 20
301
 11
52
 21
301
  0
LINE
  8
0
 10
52
 20
301
 11
52
 21
151
  0
LINE
  8
0
 10
52
 20
151
 11
60.3333
 21
151
  0
LINE
  8
0
 10
60.3333
 20
151
 11
60.3333
 21
159.333
  0
LINE
  8
0
 10
75.5
 20
157
 11
75.5
 21
295
  0
LINE
  8
0
 10
75.5
 20
295
 11
78.5
 21
295
  0
LINE
  8
0
 10
78.5
 20
295
 11
78.5
 21
157
  0
LINE
  8
0
 10
78.5
 20
157
 11
75.5
 21
157
  0
LINE
  8
0
 10
42.6667
 20
8.33333
 11
51
 21
8.33333
  0
LINE
  8
0
 10
51
 20
8.33333
 11
51
 21
141.667
  0
LINE
  8
0
 10
51
 20
141.667
 11
42.6667
 21
141.667
  0
LINE
  8
0
 10
42.6667
 20
141.667
 11
42.6667
 21
150
  0
LINE
  8
0
 10
42.6667
 20
150
 11
9.33333
 21
150
  0
LINE
  8
0
 10
9.33333
 20
150
 11
9.33333
 21
141.667
  0
LINE
  8
0
 10
9.33333
 20
141.667
 11
1
 21
141.667
  0
LINE
  8
0
 10
1
 20
141.667
 11
1
 21
8.33333
  0
LINE
  8
0
 10
1
 20
8.33333
 11
9.33333
 21
8.33333
  0
LINE
  8
0
 10
9.33333
 20
8.33333
 11
9.33333
 21
0
  0
LINE
  8
0
 10
9.33333
 20
0
 11
42.6667
 21
0
  0
LINE
  8
0
 10
42.6667
 20
0
 11
42.6667
 21
8.33333
  0
LINE
  8
0
 10
24.5
 20
6
 11
24.5
 21
144
  0
LINE
  8
0
 10
24.5
 20
144
 11
27.5
 21
144
  0
LINE
  8
0
 10
27.5
 20
144
 11
27.5
 21
6
  0
LINE
  8
0
 10
27.5
 20
6
 11
24.5
 21
6
  0
LINE
  8
0
 10
93.6667
 20
8.33333
 11
102
 21
8.33333
  0
LINE
  8
0
 10
102
 20
8.33333
 11
102
 21
141.667
  0
LINE
  8
0
 10
102
 20
141.667
 11
93.6667
 21
141.667
  0
LINE
  8
0
 10
93.6667
 20
141.667
 11
93.6667
 21
150
  0
LINE
  8
0
 10
93.6667
 20
150
 11
60.3333
 21
150
  0
LINE
  8
0
 10
60.3333
 20
150
 11
60.3333
 21
141.667
  0
LINE
  8
0
 10
60.3333
 20
141.667
 11
52
 21
141.667
  0
LINE
  8
0
 10
52
 20
141.667
 11
52
 21
8.33333
  0
LINE
  8
0
 10
52
 20
8.33333
 11
60.3333
 21
8.33333
  0
LINE
  8
0
 10
60.3333
 20
8.33333
 11
60.3333
 21
0
  0
LINE
  8
0
 10
60.3333
 20
0
 11
93.6667
 21
0
  0
LINE
  8
0
 10
93.6667
 20
0
 11
93.6667
 21
8.33333
  0
LINE
  8
0
 10
75.5
 20
6
 11
75.5
 21
144
  0
LINE
  8
0
 10
75.5
 20
144
 11
78.5
 21
144
  0
LINE
  8
0
 10
78.5
 20
144
 11
78.5
 21
6
  0
LINE
  8
0
 10
78.5
 20
6
 11
75.5
 21
6
  0
ENDSEC
  0
SECTION
  2
OBJECTS
  0
DICTIONARY
  0
ENDSEC
  0
EOF
