<?xml version="1.0" standalone="no"?>
<!DOCTYPE svg PUBLIC "-//W3C//DTD SVG 1.1//EN" "http://www.w3.org/Graphics/SVG/1.1/DTD/svg11.dtd">
<svg width="101mm" height="301mm" viewBox="1 -301 101 301" xmlns="http://www.w3.org/2000/svg" version="1.1">
<title>OpenSCAD Model</title>
<path d="
M 9.33333,-159.333 L 17.6667,-159.333 L 17.6667,-151 L 34.3333,-151 L 34.3333,-159.333 L 42.6667,-159.333
 L 42.6667,-151 L 51,-151 L 51,-301 L 42.6667,-301 L 42.6667,-292.667 L 34.3333,-292.667
 L 34.3333,-301 L 17.6667,-301 L 17.6667,-292.667 L 9.33333,-292.667 L 9.33333,-301 L 1,-301
 L 1,-151 L 9.33333,-151 z
M 24.5,-157 L 24.5,-295 L 27.5,-295 L 27.5,-157 z
M 60.3333,-159.333 L 68.6667,-159.333 L 68.6667,-151 L 85.3333,-151 L 85.3333,-159.333 L 93.6667,-159.333
 L 93.6667,-151 L 102,-151 L 102,-301 L 93.6667,-301 L 93.6667,-292.667 L 85.3333,-292.667
 L 85.3333,-301 L 68.6667,-301 L 68.6667,-292.667 L 60.3333,-292.667 L 60.3333,-301 L 52,-301
 L 52,-151 L 60.3333,-151 z
M 75.5,-157 L 75.5,-295 L 78.5,-295 L 78.5,-157 z
M 42.6667,-8.33333 L 51,-8.33333 L 51,-141.667 L 42.6667,-141.667 L 42.6667,-150 L 9.33333,-150
 L 9.33333,-141.667 L 1,-141.667 L 1,-8.33333 L 9.33333,-8.33333 L 9.33333,-0 L 42.6667,-0
 z
M 24.5,-6 L 24.5,-144 L 27.5,-144 L 27.5,-6 z
M 93.6667,-8.33333 L 102,-8.33333 L 102,-141.667 L 93.6667,-141.667 L 93.6667,-150 L 60.3333,-150
 L 60.3333,-141.667 L 52,-141.667 L 52,-8.33333 L 60.3333,-8.33333 L 60.3333,-0 L 93.6667,-0
 z
M 75.5,-6 L 75.5,-144 L 78.5,-144 L 78.5,-6 z
" stroke="black" fill="lightgray" stroke-width="0.5"/>
</svg>
