  0
SECTION
  2
BLOCKS
  0
ENDSEC
  0
SECTION
  2
ENTITIES
  0
LINE
  8
0
 10
41.9167
 20
280.25
 11
41.9167
 21
271.917
  0
LINE
  8
0
 10
41.9167
 20
271.917
 11
33.5833
 21
271.917
  0
LINE
  8
0
 10
33.5833
 20
271.917
 11
33.5833
 21
280.25
  0
LINE
  8
0
 10
33.5833
 20
280.25
 11
16.9167
 21
280.25
  0
LINE
  8
0
 10
16.9167
 20
280.25
 11
16.9167
 21
271.917
  0
LINE
  8
0
 10
16.9167
 20
271.917
 11
8.58333
 21
271.917
  0
LINE
  8
0
 10
8.58333
 20
271.917
 11
8.58333
 21
280.25
  0
LINE
  8
0
 10
8.58333
 20
280.25
 11
0.25
 21
280.25
  0
LINE
  8
0
 10
0.25
 20
280.25
 11
0.25
 21
8.33333
  0
LINE
  8
0
 10
0.25
 20
8.33333
 11
8.58333
 21
8.33333
  0
LINE
  8
0
 10
8.58333
 20
8.33333
 11
8.58333
 21
0
  0
LINE
  8
0
 10
8.58333
 20
0
 11
41.9167
 21
0
  0
LINE
  8
0
 10
41.9167
 20
0
 11
41.9167
 21
8.33333
  0
LINE
  8
0
 10
41.9167
 20
8.33333
 11
50.25
 21
8.33333
  0
LINE
  8
0
 10
50.25
 20
8.33333
 11
50.25
 21
280.25
  0
LINE
  8
0
 10
50.25
 20
280.25
 11
41.9167
 21
280.25
  0
LINE
  8
0
 10
23.75
 20
150
 11
23.75
 21
274.25
  0
LINE
  8
0
 10
23.75
 20
274.25
 11
26.75
 21
274.25
  0
LINE
  8
0
 10
26.75
 20
274.25
 11
26.75
 21
150
  0
LINE
  8
0
 10
26.75
 20
150
 11
23.75
 21
150
  0
LINE
  8
0
 10
23.75
 20
136.25
 11
23.75
 21
144
  0
LINE
  8
0
 10
23.75
 20
144
 11
26.75
 21
144
  0
LINE
  8
0
 10
26.75
 20
144
 11
26.75
 21
136.25
  0
LINE
  8
0
 10
26.75
 20
136.25
 11
23.75
 21
136.25
  0
LINE
  8
0
 10
23.75
 20
6
 11
23.75
 21
130.25
  0
LINE
  8
0
 10
23.75
 20
130.25
 11
26.75
 21
130.25
  0
LINE
  8
0
 10
26.75
 20
130.25
 11
26.75
 21
6
  0
LINE
  8
0
 10
26.75
 20
6
 11
23.75
 21
6
  0
LINE
  8
0
 10
92.1667
 20
280.25
 11
92.1667
 21
271.917
  0
LINE
  8
0
 10
92.1667
 20
271.917
 11
83.8333
 21
271.917
  0
LINE
  8
0
 10
83.8333
 20
271.917
 11
83.8333
 21
280.25
  0
LINE
  8
0
 10
83.8333
 20
280.25
 11
67.1667
 21
280.25
  0
LINE
  8
0
 10
67.1667
 20
280.25
 11
67.1667
 21
271.917
  0
LINE
  8
0
 10
67.1667
 20
271.917
 11
58.8333
 21
271.917
  0
LINE
  8
0
 10
58.8333
 20
271.917
 11
58.8333
 21
280.25
  0
LINE
  8
0
 10
58.8333
 20
280.25
 11
50.5
 21
280.25
  0
LINE
  8
0
 10
50.5
 20
280.25
 11
50.5
 21
8.33333
  0
LINE
  8
0
 10
50.5
 20
8.33333
 11
58.8333
 21
8.33333
  0
LINE
  8
0
 10
58.8333
 20
8.33333
 11
58.8333
 21
0
  0
LINE
  8
0
 10
58.8333
 20
0
 11
92.1667
 21
0
  0
LINE
  8
0
 10
92.1667
 20
0
 11
92.1667
 21
8.33333
  0
LINE
  8
0
 10
92.1667
 20
8.33333
 11
100.5
 21
8.33333
  0
LINE
  8
0
 10
100.5
 20
8.33333
 11
100.5
 21
280.25
  0
LINE
  8
0
 10
100.5
 20
280.25
 11
92.1667
 21
280.25
  0
LINE
  8
0
 10
74
 20
150
 11
74
 21
274.25
  0
LINE
  8
0
 10
74
 20
274.25
 11
77
 21
274.25
  0
LINE
  8
0
 10
77
 20
274.25
 11
77
 21
150
  0
LINE
  8
0
 10
77
 20
150
 11
74
 21
150
  0
LINE
  8
0
 10
74
 20
136.25
 11
74
 21
144
  0
LINE
  8
0
 10
74
 20
144
 11
77
 21
144
  0
LINE
  8
0
 10
77
 20
144
 11
77
 21
136.25
  0
LINE
  8
0
 10
77
 20
136.25
 11
74
 21
136.25
  0
LINE
  8
0
 10
74
 20
6
 11
74
 21
130.25
  0
LINE
  8
0
 10
74
 20
130.25
 11
77
 21
130.25
  0
LINE
  8
0
 10
77
 20
130.25
 11
77
 21
6
  0
LINE
  8
0
 10
77
 20
6
 11
74
 21
6
  0
ENDSEC
  0
SECTION
  2
OBJECTS
  0
DICTIONARY
  0
ENDSEC
  0
EOF
