<?xml version="1.0" standalone="no"?>
<!DOCTYPE svg PUBLIC "-//W3C//DTD SVG 1.1//EN" "http://www.w3.org/Graphics/SVG/1.1/DTD/svg11.dtd">
<svg width="101mm" height="281mm" viewBox="0 -281 101 281" xmlns="http://www.w3.org/2000/svg" version="1.1">
<title>OpenSCAD Model</title>
<path d="
M 50.25,-280.25 L 0.25,-280.25 L 0.25,-130.25 L 50.25,-130.25 z
M 23.75,-136.25 L 23.75,-274.25 L 26.75,-274.25 L 26.75,-136.25 z
M 100.5,-280.25 L 50.5,-280.25 L 50.5,-130.25 L 100.5,-130.25 z
M 74,-136.25 L 74,-274.25 L 77,-274.25 L 77,-136.25 z
M 50.25,-130 L 0.25,-130 L 0.25,-0 L 50.25,-0 z
M 23.75,-6 L 23.75,-124 L 26.75,-124 L 26.75,-6 z
M 100.5,-130 L 50.5,-130 L 50.5,-0 L 100.5,-0 z
M 74,-6 L 74,-124 L 77,-124 L 77,-6 z
" stroke="black" fill="lightgray" stroke-width="0.5"/>
</svg>
