<?xml version="1.0" standalone="no"?>
<!DOCTYPE svg PUBLIC "-//W3C//DTD SVG 1.1//EN" "http://www.w3.org/Graphics/SVG/1.1/DTD/svg11.dtd">
<svg width="101mm" height="281mm" viewBox="0 -281 101 281" xmlns="http://www.w3.org/2000/svg" version="1.1">
<title>OpenSCAD Model</title>
<path d="
M 41.9167,-280.25 L 41.9167,-271.917 L 33.5833,-271.917 L 33.5833,-280.25 L 16.9167,-280.25 L 16.9167,-271.917
 L 8.58333,-271.917 L 8.58333,-280.25 L 0.25,-280.25 L 0.25,-8.33333 L 8.58333,-8.33333 L 8.58333,-0
 L 41.9167,-0 L 41.9167,-8.33333 L 50.25,-8.33333 L 50.25,-280.25 z
M 23.75,-150 L 23.75,-274.25 L 26.75,-274.25 L 26.75,-150 z
M 23.75,-136.25 L 23.75,-144 L 26.75,-144 L 26.75,-136.25 z
M 23.75,-6 L 23.75,-130.25 L 26.75,-130.25 L 26.75,-6 z
M 92.1667,-280.25 L 92.1667,-271.917 L 83.8333,-271.917 L 83.8333,-280.25 L 67.1667,-280.25 L 67.1667,-271.917
 L 58.8333,-271.917 L 58.8333,-280.25 L 50.5,-280.25 L 50.5,-8.33333 L 58.8333,-8.33333 L 58.8333,-0
 L 92.1667,-0 L 92.1667,-8.33333 L 100.5,-8.33333 L 100.5,-280.25 z
M 74,-150 L 74,-274.25 L 77,-274.25 L 77,-150 z
M 74,-136.25 L 74,-144 L 77,-144 L 77,-136.25 z
M 74,-6 L 74,-130.25 L 77,-130.25 L 77,-6 z
" stroke="black" fill="lightgray" stroke-width="0.5"/>
</svg>
