<?xml version="1.0" standalone="no"?>
<!DOCTYPE svg PUBLIC "-//W3C//DTD SVG 1.1//EN" "http://www.w3.org/Graphics/SVG/1.1/DTD/svg11.dtd">
<svg width="61mm" height="351mm" viewBox="1 -351 61 351" xmlns="http://www.w3.org/2000/svg" version="1.1">
<title>OpenSCAD Model</title>
<path d="
M 6,-156 L 11,-156 L 11,-151 L 21,-151 L 21,-156 L 26,-156
 L 26,-151 L 31,-151 L 31,-351 L 26,-351 L 26,-346 L 21,-346
 L 21,-351 L 11,-351 L 11,-346 L 6,-346 L 6,-351 L 1,-351
 L 1,-151 L 6,-151 z
M 14.5,-157 L 14.5,-345 L 17.5,-345 L 17.5,-157 z
M 37,-156 L 42,-156 L 42,-151 L 52,-151 L 52,-156 L 57,-156
 L 57,-151 L 62,-151 L 62,-351 L 57,-351 L 57,-346 L 52,-346
 L 52,-351 L 42,-351 L 42,-346 L 37,-346 L 37,-351 L 32,-351
 L 32,-151 L 37,-151 z
M 45.5,-157 L 45.5,-345 L 48.5,-345 L 48.5,-157 z
M 26,-5 L 31,-5 L 31,-145 L 26,-145 L 26,-150 L 6,-150
 L 6,-145 L 1,-145 L 1,-5 L 6,-5 L 6,-0 L 26,-0
 z
M 14.5,-6 L 14.5,-144 L 17.5,-144 L 17.5,-6 z
M 57,-5 L 62,-5 L 62,-145 L 57,-145 L 57,-150 L 37,-150
 L 37,-145 L 32,-145 L 32,-5 L 37,-5 L 37,-0 L 57,-0
 z
M 45.5,-6 L 45.5,-144 L 48.5,-144 L 48.5,-6 z
" stroke="black" fill="lightgray" stroke-width="0.5"/>
</svg>
