<?xml version="1.0" standalone="no"?>
<!DOCTYPE svg PUBLIC "-//W3C//DTD SVG 1.1//EN" "http://www.w3.org/Graphics/SVG/1.1/DTD/svg11.dtd">
<svg width="61mm" height="339mm" viewBox="0 -339 61 339" xmlns="http://www.w3.org/2000/svg" version="1.1">
<title>OpenSCAD Model</title>
<path d="
M 30.25,-338.25 L 0.25,-338.25 L 0.25,-138.25 L 30.25,-138.25 z
M 13.75,-148.25 L 13.75,-328.25 L 16.75,-328.25 L 16.75,-148.25 z
M 60.5,-338.25 L 30.5,-338.25 L 30.5,-138.25 L 60.5,-138.25 z
M 44,-148.25 L 44,-328.25 L 47,-328.25 L 47,-148.25 z
M 30.25,-138 L 0.25,-138 L 0.25,-0 L 30.25,-0 z
M 13.75,-10 L 13.75,-128 L 16.75,-128 L 16.75,-10 z
M 60.5,-138 L 30.5,-138 L 30.5,-0 L 60.5,-0 z
M 44,-10 L 44,-128 L 47,-128 L 47,-10 z
" stroke="black" fill="lightgray" stroke-width="0.5"/>
</svg>
