<?xml version="1.0" standalone="no"?>
<!DOCTYPE svg PUBLIC "-//W3C//DTD SVG 1.1//EN" "http://www.w3.org/Graphics/SVG/1.1/DTD/svg11.dtd">
<svg width="61mm" height="339mm" viewBox="0 -339 61 339" xmlns="http://www.w3.org/2000/svg" version="1.1">
<title>OpenSCAD Model</title>
<path d="
M 25.25,-338.25 L 25.25,-333.25 L 20.25,-333.25 L 20.25,-338.25 L 10.25,-338.25 L 10.25,-333.25
 L 5.25,-333.25 L 5.25,-338.25 L 0.25,-338.25 L 0.25,-5 L 5.25,-5 L 5.25,-0
 L 25.25,-0 L 25.25,-5 L 30.25,-5 L 30.25,-338.25 z
M 13.75,-150 L 13.75,-332.25 L 16.75,-332.25 L 16.75,-150 z
M 13.75,-6 L 13.75,-138.25 L 16.75,-138.25 L 16.75,-6 z
M 55.5,-338.25 L 55.5,-333.25 L 50.5,-333.25 L 50.5,-338.25 L 40.5,-338.25 L 40.5,-333.25
 L 35.5,-333.25 L 35.5,-338.25 L 30.5,-338.25 L 30.5,-5 L 35.5,-5 L 35.5,-0
 L 55.5,-0 L 55.5,-5 L 60.5,-5 L 60.5,-338.25 z
M 44,-150 L 44,-332.25 L 47,-332.25 L 47,-150 z
M 44,-6 L 44,-138.25 L 47,-138.25 L 47,-6 z
" stroke="black" fill="lightgray" stroke-width="0.5"/>
</svg>
