  0
SECTION
  2
BLOCKS
  0
ENDSEC
  0
SECTION
  2
ENTITIES
  0
LINE
  8
0
 10
6
 20
156
 11
11
 21
156
  0
LINE
  8
0
 10
11
 20
156
 11
11
 21
151
  0
LINE
  8
0
 10
11
 20
151
 11
21
 21
151
  0
LINE
  8
0
 10
21
 20
151
 11
21
 21
156
  0
LINE
  8
0
 10
21
 20
156
 11
26
 21
156
  0
LINE
  8
0
 10
26
 20
156
 11
26
 21
151
  0
LINE
  8
0
 10
26
 20
151
 11
31
 21
151
  0
LINE
  8
0
 10
31
 20
151
 11
31
 21
351
  0
LINE
  8
0
 10
31
 20
351
 11
26
 21
351
  0
LINE
  8
0
 10
26
 20
351
 11
26
 21
346
  0
LINE
  8
0
 10
26
 20
346
 11
21
 21
346
  0
LINE
  8
0
 10
21
 20
346
 11
21
 21
351
  0
LINE
  8
0
 10
21
 20
351
 11
11
 21
351
  0
LINE
  8
0
 10
11
 20
351
 11
11
 21
346
  0
LINE
  8
0
 10
11
 20
346
 11
6
 21
346
  0
LINE
  8
0
 10
6
 20
346
 11
6
 21
351
  0
LINE
  8
0
 10
6
 20
351
 11
1
 21
351
  0
LINE
  8
0
 10
1
 20
351
 11
1
 21
151
  0
LINE
  8
0
 10
1
 20
151
 11
6
 21
151
  0
LINE
  8
0
 10
6
 20
151
 11
6
 21
156
  0
LINE
  8
0
 10
14.5
 20
157
 11
14.5
 21
345
  0
LINE
  8
0
 10
14.5
 20
345
 11
17.5
 21
345
  0
LINE
  8
0
 10
17.5
 20
345
 11
17.5
 21
157
  0
LINE
  8
0
 10
17.5
 20
157
 11
14.5
 21
157
  0
LINE
  8
0
 10
37
 20
156
 11
42
 21
156
  0
LINE
  8
0
 10
42
 20
156
 11
42
 21
151
  0
LINE
  8
0
 10
42
 20
151
 11
52
 21
151
  0
LINE
  8
0
 10
52
 20
151
 11
52
 21
156
  0
LINE
  8
0
 10
52
 20
156
 11
57
 21
156
  0
LINE
  8
0
 10
57
 20
156
 11
57
 21
151
  0
LINE
  8
0
 10
57
 20
151
 11
62
 21
151
  0
LINE
  8
0
 10
62
 20
151
 11
62
 21
351
  0
LINE
  8
0
 10
62
 20
351
 11
57
 21
351
  0
LINE
  8
0
 10
57
 20
351
 11
57
 21
346
  0
LINE
  8
0
 10
57
 20
346
 11
52
 21
346
  0
LINE
  8
0
 10
52
 20
346
 11
52
 21
351
  0
LINE
  8
0
 10
52
 20
351
 11
42
 21
351
  0
LINE
  8
0
 10
42
 20
351
 11
42
 21
346
  0
LINE
  8
0
 10
42
 20
346
 11
37
 21
346
  0
LINE
  8
0
 10
37
 20
346
 11
37
 21
351
  0
LINE
  8
0
 10
37
 20
351
 11
32
 21
351
  0
LINE
  8
0
 10
32
 20
351
 11
32
 21
151
  0
LINE
  8
0
 10
32
 20
151
 11
37
 21
151
  0
LINE
  8
0
 10
37
 20
151
 11
37
 21
156
  0
LINE
  8
0
 10
45.5
 20
157
 11
45.5
 21
345
  0
LINE
  8
0
 10
45.5
 20
345
 11
48.5
 21
345
  0
LINE
  8
0
 10
48.5
 20
345
 11
48.5
 21
157
  0
LINE
  8
0
 10
48.5
 20
157
 11
45.5
 21
157
  0
LINE
  8
0
 10
26
 20
5
 11
31
 21
5
  0
LINE
  8
0
 10
31
 20
5
 11
31
 21
145
  0
LINE
  8
0
 10
31
 20
145
 11
26
 21
145
  0
LINE
  8
0
 10
26
 20
145
 11
26
 21
150
  0
LINE
  8
0
 10
26
 20
150
 11
6
 21
150
  0
LINE
  8
0
 10
6
 20
150
 11
6
 21
145
  0
LINE
  8
0
 10
6
 20
145
 11
1
 21
145
  0
LINE
  8
0
 10
1
 20
145
 11
1
 21
5
  0
LINE
  8
0
 10
1
 20
5
 11
6
 21
5
  0
LINE
  8
0
 10
6
 20
5
 11
6
 21
0
  0
LINE
  8
0
 10
6
 20
0
 11
26
 21
0
  0
LINE
  8
0
 10
26
 20
0
 11
26
 21
5
  0
LINE
  8
0
 10
14.5
 20
6
 11
14.5
 21
144
  0
LINE
  8
0
 10
14.5
 20
144
 11
17.5
 21
144
  0
LINE
  8
0
 10
17.5
 20
144
 11
17.5
 21
6
  0
LINE
  8
0
 10
17.5
 20
6
 11
14.5
 21
6
  0
LINE
  8
0
 10
57
 20
5
 11
62
 21
5
  0
LINE
  8
0
 10
62
 20
5
 11
62
 21
145
  0
LINE
  8
0
 10
62
 20
145
 11
57
 21
145
  0
LINE
  8
0
 10
57
 20
145
 11
57
 21
150
  0
LINE
  8
0
 10
57
 20
150
 11
37
 21
150
  0
LINE
  8
0
 10
37
 20
150
 11
37
 21
145
  0
LINE
  8
0
 10
37
 20
145
 11
32
 21
145
  0
LINE
  8
0
 10
32
 20
145
 11
32
 21
5
  0
LINE
  8
0
 10
32
 20
5
 11
37
 21
5
  0
LINE
  8
0
 10
37
 20
5
 11
37
 21
0
  0
LINE
  8
0
 10
37
 20
0
 11
57
 21
0
  0
LINE
  8
0
 10
57
 20
0
 11
57
 21
5
  0
LINE
  8
0
 10
45.5
 20
6
 11
45.5
 21
144
  0
LINE
  8
0
 10
45.5
 20
144
 11
48.5
 21
144
  0
LINE
  8
0
 10
48.5
 20
144
 11
48.5
 21
6
  0
LINE
  8
0
 10
48.5
 20
6
 11
45.5
 21
6
  0
ENDSEC
  0
SECTION
  2
OBJECTS
  0
DICTIONARY
  0
ENDSEC
  0
EOF
