  0
SECTION
  2
BLOCKS
  0
ENDSEC
  0
SECTION
  2
ENTITIES
  0
LINE
  8
0
 10
25.25
 20
338.25
 11
25.25
 21
333.25
  0
LINE
  8
0
 10
25.25
 20
333.25
 11
20.25
 21
333.25
  0
LINE
  8
0
 10
20.25
 20
333.25
 11
20.25
 21
338.25
  0
LINE
  8
0
 10
20.25
 20
338.25
 11
10.25
 21
338.25
  0
LINE
  8
0
 10
10.25
 20
338.25
 11
10.25
 21
333.25
  0
LINE
  8
0
 10
10.25
 20
333.25
 11
5.25
 21
333.25
  0
LINE
  8
0
 10
5.25
 20
333.25
 11
5.25
 21
338.25
  0
LINE
  8
0
 10
5.25
 20
338.25
 11
0.25
 21
338.25
  0
LINE
  8
0
 10
0.25
 20
338.25
 11
0.25
 21
5
  0
LINE
  8
0
 10
0.25
 20
5
 11
5.25
 21
5
  0
LINE
  8
0
 10
5.25
 20
5
 11
5.25
 21
0
  0
LINE
  8
0
 10
5.25
 20
0
 11
25.25
 21
0
  0
LINE
  8
0
 10
25.25
 20
0
 11
25.25
 21
5
  0
LINE
  8
0
 10
25.25
 20
5
 11
30.25
 21
5
  0
LINE
  8
0
 10
30.25
 20
5
 11
30.25
 21
338.25
  0
LINE
  8
0
 10
30.25
 20
338.25
 11
25.25
 21
338.25
  0
LINE
  8
0
 10
13.75
 20
150
 11
13.75
 21
332.25
  0
LINE
  8
0
 10
13.75
 20
332.25
 11
16.75
 21
332.25
  0
LINE
  8
0
 10
16.75
 20
332.25
 11
16.75
 21
150
  0
LINE
  8
0
 10
16.75
 20
150
 11
13.75
 21
150
  0
LINE
  8
0
 10
13.75
 20
6
 11
13.75
 21
138.25
  0
LINE
  8
0
 10
13.75
 20
138.25
 11
16.75
 21
138.25
  0
LINE
  8
0
 10
16.75
 20
138.25
 11
16.75
 21
6
  0
LINE
  8
0
 10
16.75
 20
6
 11
13.75
 21
6
  0
LINE
  8
0
 10
55.5
 20
338.25
 11
55.5
 21
333.25
  0
LINE
  8
0
 10
55.5
 20
333.25
 11
50.5
 21
333.25
  0
LINE
  8
0
 10
50.5
 20
333.25
 11
50.5
 21
338.25
  0
LINE
  8
0
 10
50.5
 20
338.25
 11
40.5
 21
338.25
  0
LINE
  8
0
 10
40.5
 20
338.25
 11
40.5
 21
333.25
  0
LINE
  8
0
 10
40.5
 20
333.25
 11
35.5
 21
333.25
  0
LINE
  8
0
 10
35.5
 20
333.25
 11
35.5
 21
338.25
  0
LINE
  8
0
 10
35.5
 20
338.25
 11
30.5
 21
338.25
  0
LINE
  8
0
 10
30.5
 20
338.25
 11
30.5
 21
5
  0
LINE
  8
0
 10
30.5
 20
5
 11
35.5
 21
5
  0
LINE
  8
0
 10
35.5
 20
5
 11
35.5
 21
0
  0
LINE
  8
0
 10
35.5
 20
0
 11
55.5
 21
0
  0
LINE
  8
0
 10
55.5
 20
0
 11
55.5
 21
5
  0
LINE
  8
0
 10
55.5
 20
5
 11
60.5
 21
5
  0
LINE
  8
0
 10
60.5
 20
5
 11
60.5
 21
338.25
  0
LINE
  8
0
 10
60.5
 20
338.25
 11
55.5
 21
338.25
  0
LINE
  8
0
 10
44
 20
150
 11
44
 21
332.25
  0
LINE
  8
0
 10
44
 20
332.25
 11
47
 21
332.25
  0
LINE
  8
0
 10
47
 20
332.25
 11
47
 21
150
  0
LINE
  8
0
 10
47
 20
150
 11
44
 21
150
  0
LINE
  8
0
 10
44
 20
6
 11
44
 21
138.25
  0
LINE
  8
0
 10
44
 20
138.25
 11
47
 21
138.25
  0
LINE
  8
0
 10
47
 20
138.25
 11
47
 21
6
  0
LINE
  8
0
 10
47
 20
6
 11
44
 21
6
  0
ENDSEC
  0
SECTION
  2
OBJECTS
  0
DICTIONARY
  0
ENDSEC
  0
EOF
