  0
SECTION
  2
BLOCKS
  0
ENDSEC
  0
SECTION
  2
ENTITIES
  0
LINE
  8
0
 10
30.25
 20
338.25
 11
0.25
 21
338.25
  0
LINE
  8
0
 10
0.25
 20
338.25
 11
0.25
 21
138.25
  0
LINE
  8
0
 10
0.25
 20
138.25
 11
30.25
 21
138.25
  0
LINE
  8
0
 10
30.25
 20
138.25
 11
30.25
 21
338.25
  0
LINE
  8
0
 10
13.75
 20
148.25
 11
13.75
 21
328.25
  0
LINE
  8
0
 10
13.75
 20
328.25
 11
16.75
 21
328.25
  0
LINE
  8
0
 10
16.75
 20
328.25
 11
16.75
 21
148.25
  0
LINE
  8
0
 10
16.75
 20
148.25
 11
13.75
 21
148.25
  0
LINE
  8
0
 10
60.5
 20
338.25
 11
30.5
 21
338.25
  0
LINE
  8
0
 10
30.5
 20
338.25
 11
30.5
 21
138.25
  0
LINE
  8
0
 10
30.5
 20
138.25
 11
60.5
 21
138.25
  0
LINE
  8
0
 10
60.5
 20
138.25
 11
60.5
 21
338.25
  0
LINE
  8
0
 10
44
 20
148.25
 11
44
 21
328.25
  0
LINE
  8
0
 10
44
 20
328.25
 11
47
 21
328.25
  0
LINE
  8
0
 10
47
 20
328.25
 11
47
 21
148.25
  0
LINE
  8
0
 10
47
 20
148.25
 11
44
 21
148.25
  0
LINE
  8
0
 10
30.25
 20
138
 11
0.25
 21
138
  0
LINE
  8
0
 10
0.25
 20
138
 11
0.25
 21
0
  0
LINE
  8
0
 10
0.25
 20
0
 11
30.25
 21
0
  0
LINE
  8
0
 10
30.25
 20
0
 11
30.25
 21
138
  0
LINE
  8
0
 10
13.75
 20
10
 11
13.75
 21
128
  0
LINE
  8
0
 10
13.75
 20
128
 11
16.75
 21
128
  0
LINE
  8
0
 10
16.75
 20
128
 11
16.75
 21
10
  0
LINE
  8
0
 10
16.75
 20
10
 11
13.75
 21
10
  0
LINE
  8
0
 10
60.5
 20
138
 11
30.5
 21
138
  0
LINE
  8
0
 10
30.5
 20
138
 11
30.5
 21
0
  0
LINE
  8
0
 10
30.5
 20
0
 11
60.5
 21
0
  0
LINE
  8
0
 10
60.5
 20
0
 11
60.5
 21
138
  0
LINE
  8
0
 10
44
 20
10
 11
44
 21
128
  0
LINE
  8
0
 10
44
 20
128
 11
47
 21
128
  0
LINE
  8
0
 10
47
 20
128
 11
47
 21
10
  0
LINE
  8
0
 10
47
 20
10
 11
44
 21
10
  0
ENDSEC
  0
SECTION
  2
OBJECTS
  0
DICTIONARY
  0
ENDSEC
  0
EOF
